<?xml version="1.0" encoding="UTF-8"?>
<svg width="24" height="24" viewBox="0 0 24 24" fill="none" xmlns="http://www.w3.org/2000/svg">
    <path d="M21 3H3C1.9 3 1 3.9 1 5V19C1 20.1 1.9 21 3 21H21C22.1 21 23 20.1 23 19V5C23 3.9 22.1 3 21 3ZM21 19H3V5H21V19Z" fill="currentColor"/>
    <path d="M9 17H7V15H9V17Z" fill="currentColor"/>
    <path d="M13 17H11V15H13V17Z" fill="currentColor"/>
    <path d="M17 17H15V15H17V17Z" fill="currentColor"/>
    <path d="M9 13H7V11H9V13Z" fill="currentColor"/>
    <path d="M13 13H11V11H13V13Z" fill="currentColor"/>
    <path d="M17 13H15V11H17V13Z" fill="currentColor"/>
    <path d="M9 9H7V7H9V9Z" fill="currentColor"/>
    <path d="M13 9H11V7H13V9Z" fill="currentColor"/>
    <path d="M17 9H15V7H17V9Z" fill="currentColor"/>
</svg> 